<svg width="34" height="36" fill="none" xmlns="http://www.w3.org/2000/svg"><path d="m33.542 26.768-4.778-3.991c.155-.286.253-.602.28-.935a2.372 2.372 0 0 0-.564-1.756 2.407 2.407 0 0 0-1.152-.75 2.397 2.397 0 0 0-.087-3 2.41 2.41 0 0 0-1.224-.77 2.396 2.396 0 0 0-.216-2.813 2.422 2.422 0 0 0-1.499-.825 2.392 2.392 0 0 0-.439-2.34 2.424 2.424 0 0 0-1.655-.844 2.427 2.427 0 0 0-1.778.556l-.09.076-2.738-1.264c-1.434-.736-2.688-.158-3.295.74-.202.3-.326.621-.39.947l-.598-.5a2.46 2.46 0 0 0-3.432.29 2.39 2.39 0 0 0-.439 2.339 2.42 2.42 0 0 0-1.499.825 2.379 2.379 0 0 0-.563 1.757c.033.38.152.74.347 1.056a2.426 2.426 0 0 0-1.224.77 2.396 2.396 0 0 0-.087 2.998 2.43 2.43 0 0 0-1.152.75 2.39 2.39 0 0 0-.28 2.692L.208 26.767a.576.576 0 0 0-.07.819.59.59 0 0 0 .827.07l4.797-4.006 1.923 1.605a2.43 2.43 0 0 0 1.775.557 2.42 2.42 0 0 0 1.653-.844c.419-.489.62-1.112.565-1.755a2.39 2.39 0 0 0-.29-.95 2.374 2.374 0 0 0 1.814-2.716h.002c.684 0 1.359-.282 1.82-.821.432-.43.655-1.013.627-1.644 0-.02-.008-.04-.009-.06.096.01.191.027.29.027.07 0 .14-.003.21-.01.65-.054 1.238-.355 1.62-.808a2.141 2.141 0 0 0 .632-1.64 2.457 2.457 0 0 0-.64-1.537l3.431-2.866a1.25 1.25 0 0 1 .921-.287 1.242 1.242 0 0 1 .706 2.195l-.444.372a.576.576 0 0 0-.068.819.59.59 0 0 0 .826.067l.003-.002a1.275 1.275 0 0 1 1.773.15c.449.527.38 1.316-.151 1.76l-.942.787a.576.576 0 0 0-.07.819.59.59 0 0 0 .827.068 1.28 1.28 0 0 1 .92-.288 1.243 1.243 0 0 1 .705 2.195l-1.142.954a.576.576 0 0 0-.071.818.59.59 0 0 0 .827.07l.002-.001c.255-.213.578-.313.917-.287.337.029.641.183.857.437.217.254.32.577.292.91a1.236 1.236 0 0 1-.44.849l-5.335 4.454c-2.177 1.818-3.972 1.626-6.669 1.095a.584.584 0 0 0-.494.126l-8.031 6.708a.576.576 0 0 0-.07.818.587.587 0 0 0 .827.07l7.817-6.529c1.114.212 2.133.36 3.118.325l7.496 6.205a.59.59 0 0 0 .827-.073.576.576 0 0 0-.073-.817l-6.7-5.547c.889-.25 1.776-.714 2.709-1.492l5.134-4.287 4.795 4.006a.589.589 0 0 0 .828-.069.577.577 0 0 0-.071-.818ZM15.344 10.99c-.444-.371-.363-1.046-.06-1.492.148-.22.718-.898 1.8-.345l2.269 1.047-2.478 2.07-1.525-1.274-.005-.004v-.002Zm-5.126 13.228c-.215.254-.52.409-.855.436-.34.03-.664-.074-.92-.287l-2.126-1.773a1.242 1.242 0 0 1-.15-1.76 1.269 1.269 0 0 1 1.766-.157l2.137 1.784c.256.213.412.514.44.848.029.334-.075.656-.292.91Zm1.56-3.484a1.274 1.274 0 0 1-1.777.15l-1.297-1.082c-.002 0-.002-.003-.004-.005l-1.142-.953a1.243 1.243 0 0 1 .707-2.196c.337-.027.663.074.92.288v.001l.004.002 2.437 2.037c.531.443.599 1.233.152 1.758Zm2.385-2.794a1.274 1.274 0 0 1-1.779.148l-2.45-2.046s-.002 0-.002-.002l-.935-.78a1.232 1.232 0 0 1-.44-.848 1.23 1.23 0 0 1 .29-.91c.216-.253.52-.408.857-.436.331-.03.66.073.916.284l.005.004 3.386 2.827c.28.233.455.589.47.95.013.303-.088.578-.318.809Zm2.74-2.495c-.216.253-.52.408-.857.436a1.246 1.246 0 0 1-.918-.286c-.028-.024-.054-.024-.078-.01a2.557 2.557 0 0 0-.282-.291l-3.386-2.827-.008-.006-.438-.365a1.242 1.242 0 0 1-.152-1.76 1.276 1.276 0 0 1 1.778-.15l.803.671v.001l1.276 1.065.394.33 1.719 1.435c.28.233.454.588.47.95.012.302-.09.575-.322.807Zm2.321-11.23c.324 0 .587-.26.587-.58V.58a.583.583 0 0 0-.587-.58.583.583 0 0 0-.587.58v3.055c0 .32.262.58.587.58ZM27 5.885c.18 0 .359-.083.474-.237L29.3 3.186a.577.577 0 0 0-.126-.812.59.59 0 0 0-.82.125l-1.826 2.462a.577.577 0 0 0 .126.812.59.59 0 0 0 .346.112Zm-16.02-.237a.587.587 0 0 0 .82.125.576.576 0 0 0 .125-.812L10.098 2.5a.59.59 0 0 0-.82-.124.576.576 0 0 0-.125.811l1.826 2.462Z" fill="#DBFF00"/></svg>