<svg width="39" height="32" fill="none" xmlns="http://www.w3.org/2000/svg"><path d="M34.788 15.613c0 .038.58-.504.58-.465h3.371l-5.85 6.78-5.927-6.78h3.37c0-.04.736.503.736.465 0-6.47-4.997-11.7-11.157-11.7-2.79 0-5.346 1.085-7.283 2.867l-2.48-2.945C12.783 1.433 16.192 0 19.911 0c8.213 0 14.877 7.012 14.877 15.613Zm-30.836.774c0-.038-.582.504-.582.465H0l5.85-6.78 5.927 6.78h-3.37c0 .039-.736-.503-.736-.465 0 6.47 4.997 11.7 11.157 11.7 2.79 0 5.346-1.085 7.283-2.867l2.48 2.945C25.956 30.567 22.547 32 18.828 32c-8.213 0-14.876-7.012-14.876-15.613Z" fill="#F93E3E"/></svg>