<svg width="32" height="36" fill="none" xmlns="http://www.w3.org/2000/svg"><path d="M24.925 15.95a1.416 1.416 0 0 0-1.907-.62L15.44 19.2a1.423 1.423 0 0 0-.62 1.911c.355.7 1.21.977 1.907.621l7.578-3.87a1.423 1.423 0 0 0 .62-1.912ZM18.43 2.842c.52 0 .944-.636.944-1.421C19.374.637 18.951 0 18.43 0h-5.67c-.522 0-.946.637-.946 1.421 0 .785.424 1.421.946 1.421h5.67Z" fill="#AFC6F0"/><path d="M17.012.888c0-.49-.636-.888-1.418-.888-.783 0-1.418.398-1.418.888v5.33c0 .49.635.887 1.418.887.783 0 1.418-.398 1.418-.888V.888Z" fill="#AFC6F0"/><path d="M31.587 7.194a1.415 1.415 0 0 0-2.005-.003l-2.558 2.557c-2.852-3.08-6.919-5.01-11.43-5.01C6.996 4.737 0 11.75 0 20.367 0 28.989 6.996 36 15.594 36c8.598 0 15.594-7.013 15.594-15.631 0-3.07-.892-5.932-2.422-8.351l2.817-2.814a1.423 1.423 0 0 0 .004-2.01ZM15.594 33.158c-7.035 0-12.759-5.738-12.759-12.79 0-7.051 5.724-12.79 12.759-12.79s12.759 5.739 12.759 12.79c0 7.052-5.724 12.79-12.759 12.79Z" fill="#AFC6F0"/></svg>