<svg width="16" height="16" fill="none" xmlns="http://www.w3.org/2000/svg"><path d="M13.565 3.008A13.3 13.3 0 0 0 10.258 2a8.271 8.271 0 0 0-.421.848 12.776 12.776 0 0 0-3.664 0A10.36 10.36 0 0 0 5.753 2a13.111 13.111 0 0 0-3.308 1.008C.351 6.064-.215 9.048.068 11.992 1.458 12.992 2.8 13.6 4.12 14c.323-.432.614-.896.865-1.384a8.524 8.524 0 0 1-1.367-.648c.114-.08.227-.168.332-.256 2.636 1.192 5.49 1.192 8.094 0 .114.088.219.176.332.256-.437.256-.89.472-1.367.648.251.488.542.952.866 1.384a13.46 13.46 0 0 0 4.051-2.008c.348-3.408-.55-6.368-2.361-8.984Zm-8.216 7.168c-.793 0-1.44-.712-1.44-1.584 0-.872.631-1.584 1.44-1.584.8 0 1.455.712 1.439 1.584 0 .872-.639 1.584-1.44 1.584Zm5.313 0c-.793 0-1.44-.712-1.44-1.584 0-.872.631-1.584 1.44-1.584.8 0 1.455.712 1.439 1.584 0 .872-.63 1.584-1.44 1.584Z" fill="#fff"/></svg>