<svg width="32" height="32" fill="none" xmlns="http://www.w3.org/2000/svg"><path d="M16 0C7.177 0 0 7.177 0 16s7.177 16 16 16 16-7.177 16-16S24.823 0 16 0Zm11.355 24.306a17.812 17.812 0 0 0-3.02-1.862 19.17 19.17 0 0 0 1.08-5.482h4.627a13.995 13.995 0 0 1-2.687 7.345ZM1.958 16.962h4.628a19.162 19.162 0 0 0 1.077 5.48 17.825 17.825 0 0 0-3.021 1.86 13.997 13.997 0 0 1-2.684-7.34Zm2.684-9.264c.94.718 1.953 1.34 3.022 1.86a19.155 19.155 0 0 0-1.078 5.48H1.958a13.997 13.997 0 0 1 2.684-7.34Zm12.328 3.73a19.13 19.13 0 0 0 5.576-1.116c.526 1.497.848 3.09.94 4.726H16.97v-3.61Zm0-1.928V2.728c2.044 1.453 3.7 3.468 4.836 5.806a17.226 17.226 0 0 1-4.836.966Zm-1.925-6.783v6.785a17.227 17.227 0 0 1-4.852-.966c1.138-2.344 2.8-4.364 4.852-5.819Zm0 8.712v3.609h-6.53c.09-1.636.413-3.227.938-4.724 1.77.642 3.657 1.02 5.592 1.115Zm-6.53 5.533h6.53v3.61a19.136 19.136 0 0 0-5.592 1.113 17.217 17.217 0 0 1-.939-4.723Zm6.53 5.537v6.784c-2.051-1.455-3.714-3.476-4.852-5.82a17.233 17.233 0 0 1 4.852-.965Zm1.925 6.773V22.5c1.675.091 3.304.42 4.836.965-1.135 2.338-2.792 4.353-4.836 5.807Zm0-8.7v-3.61h6.516a17.19 17.19 0 0 1-.94 4.724 19.14 19.14 0 0 0-5.576-1.114Zm8.444-5.534a19.148 19.148 0 0 0-1.079-5.482 17.819 17.819 0 0 0 3.02-1.862 14 14 0 0 1 2.687 7.344h-4.628Zm.699-8.817a15.92 15.92 0 0 1-2.518 1.553 18.051 18.051 0 0 0-.642-1.22A17.27 17.27 0 0 0 19.628 2.4a14.083 14.083 0 0 1 6.485 3.82ZM12.373 2.4a17.295 17.295 0 0 0-3.326 4.154c-.23.4-.444.807-.643 1.223a15.945 15.945 0 0 1-2.52-1.553A14.082 14.082 0 0 1 12.372 2.4Zm-6.49 23.377a15.893 15.893 0 0 1 2.52-1.554c.198.413.41.82.64 1.216a17.282 17.282 0 0 0 3.328 4.162 14.087 14.087 0 0 1-6.488-3.824ZM19.628 29.6a17.265 17.265 0 0 0 3.329-4.161c.228-.397.44-.802.638-1.215.888.44 1.73.96 2.518 1.555a14.079 14.079 0 0 1-6.485 3.821Z" fill="#F09"/></svg>