<svg width="37" height="32" fill="none" xmlns="http://www.w3.org/2000/svg"><path d="m7.167 30.533-1.28 1.311a17.921 17.921 0 0 1-.73-.713 18.488 18.488 0 0 1-4.705-8.733 18.23 18.23 0 0 1-.172-7.216C1.756 6.572 9.304 0 18.37 0c.398 0 .793.013 1.185.038a18.46 18.46 0 0 1 9.598 3.287 18.327 18.327 0 0 1 6.674 8.568 18.233 18.233 0 0 1 .637 10.822A18.292 18.292 0 0 1 30.842 32l-.836-.933-2.487-2.476a.796.796 0 0 1 0-1.119.805.805 0 0 1 1.125 0l1.718 1.71a15.943 15.943 0 0 0 4.262-10.155H32.17a.784.784 0 0 1-.767-.763c0-.407.358-.763.767-.763h2.447a15.9 15.9 0 0 0-1.002-4.783 15.953 15.953 0 0 0-3.291-5.284l-1.63 1.622c-.153.152-.358.203-.562.203-.205 0-.41-.05-.563-.203a.796.796 0 0 1 0-1.12l1.613-1.604A16.092 16.092 0 0 0 19.085 2.37v2.107a.784.784 0 0 1-.767.763.784.784 0 0 1-.766-.763v-2.08c-2.854.19-5.732 1.138-8.087 2.71-.643.43-1.25.903-1.82 1.415l1.421 1.414a.796.796 0 0 1 0 1.12c-.153.152-.357.203-.562.203-.204 0-.409-.05-.562-.203L6.52 7.64a15.953 15.953 0 0 0-3.021 4.82 15.9 15.9 0 0 0-1.115 5.04h2.082c.409 0 .767.357.767.764a.784.784 0 0 1-.767.763H2.375c.04.956.166 1.911.38 2.853.596 2.632 1.932 5.069 3.745 7.079l1.493-1.487a.805.805 0 0 1 1.125 0 .796.796 0 0 1 0 1.12l-1.95 1.94Z" fill="#D1801E"/><path fill-rule="evenodd" clip-rule="evenodd" d="M30.586 13.787a.546.546 0 0 0-.409-.967l-1.765.213c-1.855.224-10.114 1.22-11.525 1.772-1.891.813-2.811 3.001-2.045 4.883a3.775 3.775 0 0 0 3.476 2.29c.46 0 .972-.102 1.432-.306 1.43-.61 8.178-5.85 9.507-6.918l1.33-.967Zm-11.654 5.901c-.767.306-1.687-.05-1.994-.814-.306-.763.051-1.678.818-1.984.767-.305 1.687.051 1.994.814.358.763 0 1.68-.818 1.984Z" fill="#D1801E"/></svg>